<?xml version="1.0" encoding="UTF-8"?>
<svg width="24px" height="24px" viewBox="0 0 24 24" version="1.1" xmlns="http://www.w3.org/2000/svg" xmlns:xlink="http://www.w3.org/1999/xlink">
    <!-- Generator: Sketch 52.5 (67469) - http://www.bohemiancoding.com/sketch -->
    <title>Customers</title>
    <desc>Created with Sketch.</desc>
    <g id="Dashboard" stroke="none" stroke-width="1" fill="none" fill-rule="evenodd">
        <g transform="translate(-43.000000, -173.000000)" fill="#1FAB5B" id="Nav">
            <g transform="translate(-6.000000, 0.000000)">
                <g id="Nav---Active-Links-and-Icons" transform="translate(0.000000, 80.000000)">
                    <g id="Active-Customers" transform="translate(0.000000, 68.000000)">
                        <path d="M71,42.002 L65.076,42.002 C64.094,41.239 63.039,40.744 61.976,40.486 C62.986,39.59 63.685,38.36 63.912,36.97 C63.911,36.982 63.912,36.993 63.91,37.005 C63.94,37.004 63.969,37.001 64,37.001 C69,37.001 71,40.001 71,40.001 L71,42.002 Z M65,47.002 L51,47.002 L51,45.002 C51,45.002 53,42.002 58,42.002 C63,42.002 65,45.002 65,45.002 L65,47.002 Z M54,36.002 C54,33.793 55.791,32.002 58,32.002 C60.209,32.002 62,33.793 62,36.002 C62,38.211 60.209,40.002 58,40.002 C55.791,40.002 54,38.211 54,36.002 Z M64,27.002 C66.209,27.002 68,28.793 68,31.002 C68,33.211 66.255,35.002 64.046,35.002 C64.015,35.002 64,34.994 64,34.992 L64,34.994 C64,32.854 62.1,31.103 60.109,30.374 C60.412,28.465 62.006,27.002 64,27.002 Z M67.977,35.486 C69.215,34.386 70,32.787 70,31.002 C70,27.689 67.313,25 64,25 C61.026,25 58.564,27.002 58.09,30.002 L58.092,30.002 C58.061,30.002 58.031,30 58,30 C54.687,30 52,32.688 52,36.001 C52,37.786 52.785,39.387 54.023,40.485 C52.22,40.923 50.478,42.043 49,44.002 L49,48.002 C49,48.555 49.447,49.002 50,49.002 L66,49.002 C66.553,49.002 67,48.555 67,48.002 L67,44.002 L72,44.002 C72.553,44.002 73,43.555 73,43.002 L73,39.002 C71.562,37.023 69.779,35.924 67.977,35.486 Z" id="Customers"></path>
                    </g>
                </g>
            </g>
        </g>
    </g>
</svg>