<?xml version="1.0" encoding="UTF-8"?>
<svg width="24px" height="24px" viewBox="0 0 24 24" version="1.1" xmlns="http://www.w3.org/2000/svg" xmlns:xlink="http://www.w3.org/1999/xlink">
    <!-- Generator: Sketch 52.5 (67469) - http://www.bohemiancoding.com/sketch -->
    <title>landing Pages</title>
    <desc>Created with Sketch.</desc>
    <g id="Dashboard" stroke="none" stroke-width="1" fill="none" fill-rule="evenodd">
        <g transform="translate(-43.000000, -511.000000)" fill="#1FAB5B" id="Nav">
            <g transform="translate(-6.000000, 0.000000)">
                <g id="Nav---Active-Links-and-Icons" transform="translate(0.000000, 80.000000)">
                    <g id="Active-Landing-Pages" transform="translate(0.000000, 408.000000)">
                        <path d="M61.0085,41.19725 L51.7515,35.01425 L53.2085,34.05225 L60.3185,38.78025 C60.6995,39.03525 61.3165,39.03525 61.6975,38.78025 L68.8085,34.05125 L70.2665,35.01425 L61.0085,41.19725 Z M70.2675,38.97425 L61.0085,45.15725 L51.7515,38.97425 L53.1555,38.04625 L60.3185,42.80925 C60.6995,43.06425 61.3165,43.06425 61.6975,42.80925 L68.8615,38.04525 L70.2675,38.97425 Z M51.7515,30.98625 L61.0085,24.87225 L70.2675,30.98625 L61.0085,37.16925 L51.7515,30.98625 Z M72.7315,34.55625 L70.3915,33.00025 L72.7315,31.44425 C73.1135,31.19125 73.1135,30.78025 72.7315,30.52725 L61.6985,23.19125 C61.3175,22.93625 60.7005,22.93625 60.3195,23.19125 L49.2865,30.52725 C48.9045,30.78025 48.9045,31.19125 49.2865,31.44425 L51.6265,33.00025 L49.2865,34.55625 C48.9045,34.80925 48.9045,35.22025 49.2865,35.47325 L51.5745,36.99425 L49.2865,38.51525 C48.9045,38.76825 48.9045,39.17925 49.2865,39.43225 L60.3195,46.76825 C60.7005,47.02325 61.3175,47.02325 61.6985,46.76825 L72.7315,39.43225 C73.1135,39.17925 73.1135,38.76825 72.7315,38.51525 L70.4435,36.99425 L72.7315,35.47325 C73.1135,35.22025 73.1135,34.80925 72.7315,34.55625 Z" id="landing-Pages"></path>
                    </g>
                </g>
            </g>
        </g>
    </g>
</svg>